<svg width="600" height="400" xmlns="http://www.w3.org/2000/svg">
<g style="fill:#9c3848;">
<rect x="460" y="210" width="50" height="50"/>
</g>
<g style="stroke:#d3d3d3;stroke-width:0.5;">
<line x1="460" y1="210" x2="460" y2="260"/>
</g>
<g style="stroke:#d3d3d3;stroke-width:0.5;">
<line x1="510" y1="210" x2="510" y2="260"/>
</g>
<g style="stroke:#d3d3d3;stroke-width:0.5;">
<line x1="460" y1="260" x2="510" y2="260"/>
</g>
<g style="stroke:#000000;stroke-width:0.5;">
<line x1="460" y1="210" x2="510" y2="210"/>
</g>
<g style="fill:#9c3848;">
<rect x="510" y="210" width="50" height="50"/>
</g>
<g style="stroke:#d3d3d3;stroke-width:0.5;">
<line x1="510" y1="210" x2="510" y2="260"/>
</g>
<g style="stroke:#000000;stroke-width:0.5;">
<line x1="560" y1="210" x2="560" y2="260"/>
</g>
<g style="stroke:#000000;stroke-width:0.5;">
<line x1="510" y1="260" x2="560" y2="260"/>
</g>
<g style="stroke:#000000;stroke-width:0.5;">
<line x1="510" y1="210" x2="560" y2="210"/>
</g>
<g style="fill:#9c3848;">
<rect x="410" y="210" width="50" height="50"/>
</g>
<g style="stroke:#000000;stroke-width:0.5;">
<line x1="410" y1="210" x2="410" y2="260"/>
</g>
<g style="stroke:#d3d3d3;stroke-width:0.5;">
<line x1="460" y1="210" x2="460" y2="260"/>
</g>
<g style="stroke:#000000;stroke-width:0.5;">
<line x1="410" y1="260" x2="460" y2="260"/>
</g>
<g style="stroke:#000000;stroke-width:0.5;">
<line x1="410" y1="210" x2="460" y2="210"/>
</g>
<g style="fill:#9c3848;">
<rect x="460" y="260" width="50" height="50"/>
</g>
<g style="stroke:#000000;stroke-width:0.5;">
<line x1="460" y1="260" x2="460" y2="310"/>
</g>
<g style="stroke:#000000;stroke-width:0.5;">
<line x1="510" y1="260" x2="510" y2="310"/>
</g>
<g style="stroke:#000000;stroke-width:0.5;">
<line x1="460" y1="310" x2="510" y2="310"/>
</g>
<g style="stroke:#d3d3d3;stroke-width:0.5;">
<line x1="460" y1="260" x2="510" y2="260"/>
</g>
<g style="fill:#7cb287;">
<rect x="510" y="260" width="50" height="50"/>
</g>
<g style="stroke:#000000;stroke-width:0.5;">
<line x1="510" y1="260" x2="510" y2="310"/>
</g>
<g style="stroke:#d3d3d3;stroke-width:0.5;">
<line x1="560" y1="260" x2="560" y2="310"/>
</g>
<g style="stroke:#000000;stroke-width:0.5;">
<line x1="510" y1="310" x2="560" y2="310"/>
</g>
<g style="stroke:#000000;stroke-width:0.5;">
<line x1="510" y1="260" x2="560" y2="260"/>
</g>
<g style="fill:#7cb287;">
<rect x="560" y="310" width="50" height="50"/>
</g>
<g style="stroke:#000000;stroke-width:0.5;">
<line x1="560" y1="310" x2="560" y2="360"/>
</g>
<g style="stroke:#000000;stroke-width:0.5;">
<line x1="610" y1="310" x2="610" y2="360"/>
</g>
<g style="stroke:#000000;stroke-width:0.5;">
<line x1="560" y1="360" x2="610" y2="360"/>
</g>
<g style="stroke:#d3d3d3;stroke-width:0.5;">
<line x1="560" y1="310" x2="610" y2="310"/>
</g>
<g style="fill:#7cb287;">
<rect x="560" y="210" width="50" height="50"/>
</g>
<g style="stroke:#000000;stroke-width:0.5;">
<line x1="560" y1="210" x2="560" y2="260"/>
</g>
<g style="stroke:#000000;stroke-width:0.5;">
<line x1="610" y1="210" x2="610" y2="260"/>
</g>
<g style="stroke:#d3d3d3;stroke-width:0.5;">
<line x1="560" y1="260" x2="610" y2="260"/>
</g>
<g style="stroke:#000000;stroke-width:0.5;">
<line x1="560" y1="210" x2="610" y2="210"/>
</g>
<g style="fill:#7cb287;">
<rect x="560" y="260" width="50" height="50"/>
</g>
<g style="stroke:#d3d3d3;stroke-width:0.5;">
<line x1="560" y1="260" x2="560" y2="310"/>
</g>
<g style="stroke:#000000;stroke-width:0.5;">
<line x1="610" y1="260" x2="610" y2="310"/>
</g>
<g style="stroke:#d3d3d3;stroke-width:0.5;">
<line x1="560" y1="310" x2="610" y2="310"/>
</g>
<g style="stroke:#d3d3d3;stroke-width:0.5;">
<line x1="560" y1="260" x2="610" y2="260"/>
</g>
<g style="fill:#fbdb88;">
<rect x="510" y="360" width="50" height="50"/>
</g>
<g style="stroke:#d3d3d3;stroke-width:0.5;">
<line x1="510" y1="360" x2="510" y2="410"/>
</g>
<g style="stroke:#d3d3d3;stroke-width:0.5;">
<line x1="560" y1="360" x2="560" y2="410"/>
</g>
<g style="stroke:#000000;stroke-width:0.5;">
<line x1="510" y1="410" x2="560" y2="410"/>
</g>
<g style="stroke:#d3d3d3;stroke-width:0.5;">
<line x1="510" y1="360" x2="560" y2="360"/>
</g>
<g style="fill:#fbdb88;">
<rect x="560" y="360" width="50" height="50"/>
</g>
<g style="stroke:#d3d3d3;stroke-width:0.5;">
<line x1="560" y1="360" x2="560" y2="410"/>
</g>
<g style="stroke:#000000;stroke-width:0.5;">
<line x1="610" y1="360" x2="610" y2="410"/>
</g>
<g style="stroke:#000000;stroke-width:0.5;">
<line x1="560" y1="410" x2="610" y2="410"/>
</g>
<g style="stroke:#000000;stroke-width:0.5;">
<line x1="560" y1="360" x2="610" y2="360"/>
</g>
<g style="fill:#fbdb88;">
<rect x="460" y="360" width="50" height="50"/>
</g>
<g style="stroke:#000000;stroke-width:0.5;">
<line x1="460" y1="360" x2="460" y2="410"/>
</g>
<g style="stroke:#d3d3d3;stroke-width:0.5;">
<line x1="510" y1="360" x2="510" y2="410"/>
</g>
<g style="stroke:#000000;stroke-width:0.5;">
<line x1="460" y1="410" x2="510" y2="410"/>
</g>
<g style="stroke:#000000;stroke-width:0.5;">
<line x1="460" y1="360" x2="510" y2="360"/>
</g>
<g style="fill:#fbdb88;">
<rect x="510" y="310" width="50" height="50"/>
</g>
<g style="stroke:#000000;stroke-width:0.5;">
<line x1="510" y1="310" x2="510" y2="360"/>
</g>
<g style="stroke:#000000;stroke-width:0.5;">
<line x1="560" y1="310" x2="560" y2="360"/>
</g>
<g style="stroke:#d3d3d3;stroke-width:0.5;">
<line x1="510" y1="360" x2="560" y2="360"/>
</g>
<g style="stroke:#000000;stroke-width:0.5;">
<line x1="510" y1="310" x2="560" y2="310"/>
</g>
<g style="fill:#1e3888;">
<rect x="460" y="310" width="50" height="50"/>
</g>
<g style="stroke:#d3d3d3;stroke-width:0.5;">
<line x1="460" y1="310" x2="460" y2="360"/>
</g>
<g style="stroke:#000000;stroke-width:0.5;">
<line x1="510" y1="310" x2="510" y2="360"/>
</g>
<g style="stroke:#000000;stroke-width:0.5;">
<line x1="460" y1="360" x2="510" y2="360"/>
</g>
<g style="stroke:#000000;stroke-width:0.5;">
<line x1="460" y1="310" x2="510" y2="310"/>
</g>
<g style="fill:#1e3888;">
<rect x="410" y="310" width="50" height="50"/>
</g>
<g style="stroke:#000000;stroke-width:0.5;">
<line x1="410" y1="310" x2="410" y2="360"/>
</g>
<g style="stroke:#d3d3d3;stroke-width:0.5;">
<line x1="460" y1="310" x2="460" y2="360"/>
</g>
<g style="stroke:#d3d3d3;stroke-width:0.5;">
<line x1="410" y1="360" x2="460" y2="360"/>
</g>
<g style="stroke:#d3d3d3;stroke-width:0.5;">
<line x1="410" y1="310" x2="460" y2="310"/>
</g>
<g style="fill:#1e3888;">
<rect x="410" y="260" width="50" height="50"/>
</g>
<g style="stroke:#000000;stroke-width:0.5;">
<line x1="410" y1="260" x2="410" y2="310"/>
</g>
<g style="stroke:#000000;stroke-width:0.5;">
<line x1="460" y1="260" x2="460" y2="310"/>
</g>
<g style="stroke:#d3d3d3;stroke-width:0.5;">
<line x1="410" y1="310" x2="460" y2="310"/>
</g>
<g style="stroke:#000000;stroke-width:0.5;">
<line x1="410" y1="260" x2="460" y2="260"/>
</g>
<g style="fill:#1e3888;">
<rect x="410" y="360" width="50" height="50"/>
</g>
<g style="stroke:#000000;stroke-width:0.5;">
<line x1="410" y1="360" x2="410" y2="410"/>
</g>
<g style="stroke:#000000;stroke-width:0.5;">
<line x1="460" y1="360" x2="460" y2="410"/>
</g>
<g style="stroke:#000000;stroke-width:0.5;">
<line x1="410" y1="410" x2="460" y2="410"/>
</g>
<g style="stroke:#d3d3d3;stroke-width:0.5;">
<line x1="410" y1="360" x2="460" y2="360"/>
</g>
<g style="fill:#4773aa;">
<rect x="360" y="260" width="50" height="50"/>
</g>
<g style="stroke:#d3d3d3;stroke-width:0.5;">
<line x1="360" y1="260" x2="360" y2="310"/>
</g>
<g style="stroke:#000000;stroke-width:0.5;">
<line x1="410" y1="260" x2="410" y2="310"/>
</g>
<g style="stroke:#d3d3d3;stroke-width:0.5;">
<line x1="360" y1="310" x2="410" y2="310"/>
</g>
<g style="stroke:#d3d3d3;stroke-width:0.5;">
<line x1="360" y1="260" x2="410" y2="260"/>
</g>
<g style="fill:#4773aa;">
<rect x="360" y="310" width="50" height="50"/>
</g>
<g style="stroke:#000000;stroke-width:0.5;">
<line x1="360" y1="310" x2="360" y2="360"/>
</g>
<g style="stroke:#000000;stroke-width:0.5;">
<line x1="410" y1="310" x2="410" y2="360"/>
</g>
<g style="stroke:#000000;stroke-width:0.5;">
<line x1="360" y1="360" x2="410" y2="360"/>
</g>
<g style="stroke:#d3d3d3;stroke-width:0.5;">
<line x1="360" y1="310" x2="410" y2="310"/>
</g>
<g style="fill:#4773aa;">
<rect x="360" y="210" width="50" height="50"/>
</g>
<g style="stroke:#000000;stroke-width:0.5;">
<line x1="360" y1="210" x2="360" y2="260"/>
</g>
<g style="stroke:#000000;stroke-width:0.5;">
<line x1="410" y1="210" x2="410" y2="260"/>
</g>
<g style="stroke:#d3d3d3;stroke-width:0.5;">
<line x1="360" y1="260" x2="410" y2="260"/>
</g>
<g style="stroke:#000000;stroke-width:0.5;">
<line x1="360" y1="210" x2="410" y2="210"/>
</g>
<g style="fill:#4773aa;">
<rect x="310" y="260" width="50" height="50"/>
</g>
<g style="stroke:#000000;stroke-width:0.5;">
<line x1="310" y1="260" x2="310" y2="310"/>
</g>
<g style="stroke:#d3d3d3;stroke-width:0.5;">
<line x1="360" y1="260" x2="360" y2="310"/>
</g>
<g style="stroke:#000000;stroke-width:0.5;">
<line x1="310" y1="310" x2="360" y2="310"/>
</g>
<g style="stroke:#000000;stroke-width:0.5;">
<line x1="310" y1="260" x2="360" y2="260"/>
</g>
<g style="fill:#f5e663;">
<rect x="260" y="260" width="50" height="50"/>
</g>
<g style="stroke:#000000;stroke-width:0.5;">
<line x1="260" y1="260" x2="260" y2="310"/>
</g>
<g style="stroke:#000000;stroke-width:0.5;">
<line x1="310" y1="260" x2="310" y2="310"/>
</g>
<g style="stroke:#000000;stroke-width:0.5;">
<line x1="260" y1="310" x2="310" y2="310"/>
</g>
<g style="stroke:#d3d3d3;stroke-width:0.5;">
<line x1="260" y1="260" x2="310" y2="260"/>
</g>
<g style="fill:#f5e663;">
<rect x="210" y="210" width="50" height="50"/>
</g>
<g style="stroke:#000000;stroke-width:0.5;">
<line x1="210" y1="210" x2="210" y2="260"/>
</g>
<g style="stroke:#d3d3d3;stroke-width:0.5;">
<line x1="260" y1="210" x2="260" y2="260"/>
</g>
<g style="stroke:#000000;stroke-width:0.5;">
<line x1="210" y1="260" x2="260" y2="260"/>
</g>
<g style="stroke:#000000;stroke-width:0.5;">
<line x1="210" y1="210" x2="260" y2="210"/>
</g>
<g style="fill:#f5e663;">
<rect x="310" y="210" width="50" height="50"/>
</g>
<g style="stroke:#d3d3d3;stroke-width:0.5;">
<line x1="310" y1="210" x2="310" y2="260"/>
</g>
<g style="stroke:#000000;stroke-width:0.5;">
<line x1="360" y1="210" x2="360" y2="260"/>
</g>
<g style="stroke:#000000;stroke-width:0.5;">
<line x1="310" y1="260" x2="360" y2="260"/>
</g>
<g style="stroke:#000000;stroke-width:0.5;">
<line x1="310" y1="210" x2="360" y2="210"/>
</g>
<g style="fill:#f5e663;">
<rect x="260" y="210" width="50" height="50"/>
</g>
<g style="stroke:#d3d3d3;stroke-width:0.5;">
<line x1="260" y1="210" x2="260" y2="260"/>
</g>
<g style="stroke:#d3d3d3;stroke-width:0.5;">
<line x1="310" y1="210" x2="310" y2="260"/>
</g>
<g style="stroke:#d3d3d3;stroke-width:0.5;">
<line x1="260" y1="260" x2="310" y2="260"/>
</g>
<g style="stroke:#000000;stroke-width:0.5;">
<line x1="260" y1="210" x2="310" y2="210"/>
</g>
<g style="fill:#ffad69;">
<rect x="310" y="360" width="50" height="50"/>
</g>
<g style="stroke:#d3d3d3;stroke-width:0.5;">
<line x1="310" y1="360" x2="310" y2="410"/>
</g>
<g style="stroke:#d3d3d3;stroke-width:0.5;">
<line x1="360" y1="360" x2="360" y2="410"/>
</g>
<g style="stroke:#000000;stroke-width:0.5;">
<line x1="310" y1="410" x2="360" y2="410"/>
</g>
<g style="stroke:#d3d3d3;stroke-width:0.5;">
<line x1="310" y1="360" x2="360" y2="360"/>
</g>
<g style="fill:#ffad69;">
<rect x="310" y="310" width="50" height="50"/>
</g>
<g style="stroke:#000000;stroke-width:0.5;">
<line x1="310" y1="310" x2="310" y2="360"/>
</g>
<g style="stroke:#000000;stroke-width:0.5;">
<line x1="360" y1="310" x2="360" y2="360"/>
</g>
<g style="stroke:#d3d3d3;stroke-width:0.5;">
<line x1="310" y1="360" x2="360" y2="360"/>
</g>
<g style="stroke:#000000;stroke-width:0.5;">
<line x1="310" y1="310" x2="360" y2="310"/>
</g>
<g style="fill:#ffad69;">
<rect x="360" y="360" width="50" height="50"/>
</g>
<g style="stroke:#d3d3d3;stroke-width:0.5;">
<line x1="360" y1="360" x2="360" y2="410"/>
</g>
<g style="stroke:#000000;stroke-width:0.5;">
<line x1="410" y1="360" x2="410" y2="410"/>
</g>
<g style="stroke:#000000;stroke-width:0.5;">
<line x1="360" y1="410" x2="410" y2="410"/>
</g>
<g style="stroke:#000000;stroke-width:0.5;">
<line x1="360" y1="360" x2="410" y2="360"/>
</g>
<g style="fill:#ffad69;">
<rect x="260" y="360" width="50" height="50"/>
</g>
<g style="stroke:#000000;stroke-width:0.5;">
<line x1="260" y1="360" x2="260" y2="410"/>
</g>
<g style="stroke:#d3d3d3;stroke-width:0.5;">
<line x1="310" y1="360" x2="310" y2="410"/>
</g>
<g style="stroke:#000000;stroke-width:0.5;">
<line x1="260" y1="410" x2="310" y2="410"/>
</g>
<g style="stroke:#000000;stroke-width:0.5;">
<line x1="260" y1="360" x2="310" y2="360"/>
</g>
<g style="fill:#9c3848;">
<rect x="210" y="310" width="50" height="50"/>
</g>
<g style="stroke:#000000;stroke-width:0.5;">
<line x1="210" y1="310" x2="210" y2="360"/>
</g>
<g style="stroke:#d3d3d3;stroke-width:0.5;">
<line x1="260" y1="310" x2="260" y2="360"/>
</g>
<g style="stroke:#d3d3d3;stroke-width:0.5;">
<line x1="210" y1="360" x2="260" y2="360"/>
</g>
<g style="stroke:#d3d3d3;stroke-width:0.5;">
<line x1="210" y1="310" x2="260" y2="310"/>
</g>
<g style="fill:#9c3848;">
<rect x="210" y="260" width="50" height="50"/>
</g>
<g style="stroke:#000000;stroke-width:0.5;">
<line x1="210" y1="260" x2="210" y2="310"/>
</g>
<g style="stroke:#000000;stroke-width:0.5;">
<line x1="260" y1="260" x2="260" y2="310"/>
</g>
<g style="stroke:#d3d3d3;stroke-width:0.5;">
<line x1="210" y1="310" x2="260" y2="310"/>
</g>
<g style="stroke:#000000;stroke-width:0.5;">
<line x1="210" y1="260" x2="260" y2="260"/>
</g>
<g style="fill:#9c3848;">
<rect x="260" y="310" width="50" height="50"/>
</g>
<g style="stroke:#d3d3d3;stroke-width:0.5;">
<line x1="260" y1="310" x2="260" y2="360"/>
</g>
<g style="stroke:#000000;stroke-width:0.5;">
<line x1="310" y1="310" x2="310" y2="360"/>
</g>
<g style="stroke:#000000;stroke-width:0.5;">
<line x1="260" y1="360" x2="310" y2="360"/>
</g>
<g style="stroke:#000000;stroke-width:0.5;">
<line x1="260" y1="310" x2="310" y2="310"/>
</g>
<g style="fill:#9c3848;">
<rect x="210" y="360" width="50" height="50"/>
</g>
<g style="stroke:#000000;stroke-width:0.5;">
<line x1="210" y1="360" x2="210" y2="410"/>
</g>
<g style="stroke:#000000;stroke-width:0.5;">
<line x1="260" y1="360" x2="260" y2="410"/>
</g>
<g style="stroke:#000000;stroke-width:0.5;">
<line x1="210" y1="410" x2="260" y2="410"/>
</g>
<g style="stroke:#d3d3d3;stroke-width:0.5;">
<line x1="210" y1="360" x2="260" y2="360"/>
</g>
<g style="fill:#7cb287;">
<rect x="110" y="310" width="50" height="50"/>
</g>
<g style="stroke:#000000;stroke-width:0.5;">
<line x1="110" y1="310" x2="110" y2="360"/>
</g>
<g style="stroke:#d3d3d3;stroke-width:0.5;">
<line x1="160" y1="310" x2="160" y2="360"/>
</g>
<g style="stroke:#000000;stroke-width:0.5;">
<line x1="110" y1="360" x2="160" y2="360"/>
</g>
<g style="stroke:#000000;stroke-width:0.5;">
<line x1="110" y1="310" x2="160" y2="310"/>
</g>
<g style="fill:#7cb287;">
<rect x="160" y="310" width="50" height="50"/>
</g>
<g style="stroke:#d3d3d3;stroke-width:0.5;">
<line x1="160" y1="310" x2="160" y2="360"/>
</g>
<g style="stroke:#000000;stroke-width:0.5;">
<line x1="210" y1="310" x2="210" y2="360"/>
</g>
<g style="stroke:#d3d3d3;stroke-width:0.5;">
<line x1="160" y1="360" x2="210" y2="360"/>
</g>
<g style="stroke:#d3d3d3;stroke-width:0.5;">
<line x1="160" y1="310" x2="210" y2="310"/>
</g>
<g style="fill:#7cb287;">
<rect x="160" y="360" width="50" height="50"/>
</g>
<g style="stroke:#000000;stroke-width:0.5;">
<line x1="160" y1="360" x2="160" y2="410"/>
</g>
<g style="stroke:#000000;stroke-width:0.5;">
<line x1="210" y1="360" x2="210" y2="410"/>
</g>
<g style="stroke:#000000;stroke-width:0.5;">
<line x1="160" y1="410" x2="210" y2="410"/>
</g>
<g style="stroke:#d3d3d3;stroke-width:0.5;">
<line x1="160" y1="360" x2="210" y2="360"/>
</g>
<g style="fill:#7cb287;">
<rect x="160" y="260" width="50" height="50"/>
</g>
<g style="stroke:#000000;stroke-width:0.5;">
<line x1="160" y1="260" x2="160" y2="310"/>
</g>
<g style="stroke:#000000;stroke-width:0.5;">
<line x1="210" y1="260" x2="210" y2="310"/>
</g>
<g style="stroke:#d3d3d3;stroke-width:0.5;">
<line x1="160" y1="310" x2="210" y2="310"/>
</g>
<g style="stroke:#000000;stroke-width:0.5;">
<line x1="160" y1="260" x2="210" y2="260"/>
</g>
<g style="fill:#fbdb88;">
<rect x="160" y="10" width="50" height="50"/>
</g>
<g style="stroke:#000000;stroke-width:0.5;">
<line x1="160" y1="10" x2="160" y2="60"/>
</g>
<g style="stroke:#000000;stroke-width:0.5;">
<line x1="210" y1="10" x2="210" y2="60"/>
</g>
<g style="stroke:#d3d3d3;stroke-width:0.5;">
<line x1="160" y1="60" x2="210" y2="60"/>
</g>
<g style="stroke:#000000;stroke-width:0.5;">
<line x1="160" y1="10" x2="210" y2="10"/>
</g>
<g style="fill:#fbdb88;">
<rect x="110" y="60" width="50" height="50"/>
</g>
<g style="stroke:#000000;stroke-width:0.5;">
<line x1="110" y1="60" x2="110" y2="110"/>
</g>
<g style="stroke:#d3d3d3;stroke-width:0.5;">
<line x1="160" y1="60" x2="160" y2="110"/>
</g>
<g style="stroke:#000000;stroke-width:0.5;">
<line x1="110" y1="110" x2="160" y2="110"/>
</g>
<g style="stroke:#000000;stroke-width:0.5;">
<line x1="110" y1="60" x2="160" y2="60"/>
</g>
<g style="fill:#fbdb88;">
<rect x="160" y="60" width="50" height="50"/>
</g>
<g style="stroke:#d3d3d3;stroke-width:0.5;">
<line x1="160" y1="60" x2="160" y2="110"/>
</g>
<g style="stroke:#000000;stroke-width:0.5;">
<line x1="210" y1="60" x2="210" y2="110"/>
</g>
<g style="stroke:#d3d3d3;stroke-width:0.5;">
<line x1="160" y1="110" x2="210" y2="110"/>
</g>
<g style="stroke:#d3d3d3;stroke-width:0.5;">
<line x1="160" y1="60" x2="210" y2="60"/>
</g>
<g style="fill:#fbdb88;">
<rect x="160" y="110" width="50" height="50"/>
</g>
<g style="stroke:#000000;stroke-width:0.5;">
<line x1="160" y1="110" x2="160" y2="160"/>
</g>
<g style="stroke:#000000;stroke-width:0.5;">
<line x1="210" y1="110" x2="210" y2="160"/>
</g>
<g style="stroke:#000000;stroke-width:0.5;">
<line x1="160" y1="160" x2="210" y2="160"/>
</g>
<g style="stroke:#d3d3d3;stroke-width:0.5;">
<line x1="160" y1="110" x2="210" y2="110"/>
</g>
<g style="fill:#1e3888;">
<rect x="110" y="260" width="50" height="50"/>
</g>
<g style="stroke:#000000;stroke-width:0.5;">
<line x1="110" y1="260" x2="110" y2="310"/>
</g>
<g style="stroke:#000000;stroke-width:0.5;">
<line x1="160" y1="260" x2="160" y2="310"/>
</g>
<g style="stroke:#000000;stroke-width:0.5;">
<line x1="110" y1="310" x2="160" y2="310"/>
</g>
<g style="stroke:#d3d3d3;stroke-width:0.5;">
<line x1="110" y1="260" x2="160" y2="260"/>
</g>
<g style="fill:#1e3888;">
<rect x="160" y="210" width="50" height="50"/>
</g>
<g style="stroke:#d3d3d3;stroke-width:0.5;">
<line x1="160" y1="210" x2="160" y2="260"/>
</g>
<g style="stroke:#000000;stroke-width:0.5;">
<line x1="210" y1="210" x2="210" y2="260"/>
</g>
<g style="stroke:#000000;stroke-width:0.5;">
<line x1="160" y1="260" x2="210" y2="260"/>
</g>
<g style="stroke:#000000;stroke-width:0.5;">
<line x1="160" y1="210" x2="210" y2="210"/>
</g>
<g style="fill:#1e3888;">
<rect x="110" y="210" width="50" height="50"/>
</g>
<g style="stroke:#d3d3d3;stroke-width:0.5;">
<line x1="110" y1="210" x2="110" y2="260"/>
</g>
<g style="stroke:#d3d3d3;stroke-width:0.5;">
<line x1="160" y1="210" x2="160" y2="260"/>
</g>
<g style="stroke:#d3d3d3;stroke-width:0.5;">
<line x1="110" y1="260" x2="160" y2="260"/>
</g>
<g style="stroke:#000000;stroke-width:0.5;">
<line x1="110" y1="210" x2="160" y2="210"/>
</g>
<g style="fill:#1e3888;">
<rect x="60" y="210" width="50" height="50"/>
</g>
<g style="stroke:#000000;stroke-width:0.5;">
<line x1="60" y1="210" x2="60" y2="260"/>
</g>
<g style="stroke:#d3d3d3;stroke-width:0.5;">
<line x1="110" y1="210" x2="110" y2="260"/>
</g>
<g style="stroke:#000000;stroke-width:0.5;">
<line x1="60" y1="260" x2="110" y2="260"/>
</g>
<g style="stroke:#000000;stroke-width:0.5;">
<line x1="60" y1="210" x2="110" y2="210"/>
</g>
<g style="fill:#4773aa;">
<rect x="110" y="110" width="50" height="50"/>
</g>
<g style="stroke:#000000;stroke-width:0.5;">
<line x1="110" y1="110" x2="110" y2="160"/>
</g>
<g style="stroke:#000000;stroke-width:0.5;">
<line x1="160" y1="110" x2="160" y2="160"/>
</g>
<g style="stroke:#d3d3d3;stroke-width:0.5;">
<line x1="110" y1="160" x2="160" y2="160"/>
</g>
<g style="stroke:#000000;stroke-width:0.5;">
<line x1="110" y1="110" x2="160" y2="110"/>
</g>
<g style="fill:#4773aa;">
<rect x="60" y="160" width="50" height="50"/>
</g>
<g style="stroke:#000000;stroke-width:0.5;">
<line x1="60" y1="160" x2="60" y2="210"/>
</g>
<g style="stroke:#d3d3d3;stroke-width:0.5;">
<line x1="110" y1="160" x2="110" y2="210"/>
</g>
<g style="stroke:#000000;stroke-width:0.5;">
<line x1="60" y1="210" x2="110" y2="210"/>
</g>
<g style="stroke:#000000;stroke-width:0.5;">
<line x1="60" y1="160" x2="110" y2="160"/>
</g>
<g style="fill:#4773aa;">
<rect x="160" y="160" width="50" height="50"/>
</g>
<g style="stroke:#d3d3d3;stroke-width:0.5;">
<line x1="160" y1="160" x2="160" y2="210"/>
</g>
<g style="stroke:#000000;stroke-width:0.5;">
<line x1="210" y1="160" x2="210" y2="210"/>
</g>
<g style="stroke:#000000;stroke-width:0.5;">
<line x1="160" y1="210" x2="210" y2="210"/>
</g>
<g style="stroke:#000000;stroke-width:0.5;">
<line x1="160" y1="160" x2="210" y2="160"/>
</g>
<g style="fill:#4773aa;">
<rect x="110" y="160" width="50" height="50"/>
</g>
<g style="stroke:#d3d3d3;stroke-width:0.5;">
<line x1="110" y1="160" x2="110" y2="210"/>
</g>
<g style="stroke:#d3d3d3;stroke-width:0.5;">
<line x1="160" y1="160" x2="160" y2="210"/>
</g>
<g style="stroke:#000000;stroke-width:0.5;">
<line x1="110" y1="210" x2="160" y2="210"/>
</g>
<g style="stroke:#d3d3d3;stroke-width:0.5;">
<line x1="110" y1="160" x2="160" y2="160"/>
</g>
<g style="fill:#f5e663;">
<rect x="10" y="360" width="50" height="50"/>
</g>
<g style="stroke:#000000;stroke-width:0.5;">
<line x1="10" y1="360" x2="10" y2="410"/>
</g>
<g style="stroke:#d3d3d3;stroke-width:0.5;">
<line x1="60" y1="360" x2="60" y2="410"/>
</g>
<g style="stroke:#000000;stroke-width:0.5;">
<line x1="10" y1="410" x2="60" y2="410"/>
</g>
<g style="stroke:#000000;stroke-width:0.5;">
<line x1="10" y1="360" x2="60" y2="360"/>
</g>
<g style="fill:#f5e663;">
<rect x="60" y="310" width="50" height="50"/>
</g>
<g style="stroke:#000000;stroke-width:0.5;">
<line x1="60" y1="310" x2="60" y2="360"/>
</g>
<g style="stroke:#000000;stroke-width:0.5;">
<line x1="110" y1="310" x2="110" y2="360"/>
</g>
<g style="stroke:#d3d3d3;stroke-width:0.5;">
<line x1="60" y1="360" x2="110" y2="360"/>
</g>
<g style="stroke:#000000;stroke-width:0.5;">
<line x1="60" y1="310" x2="110" y2="310"/>
</g>
<g style="fill:#f5e663;">
<rect x="60" y="360" width="50" height="50"/>
</g>
<g style="stroke:#d3d3d3;stroke-width:0.5;">
<line x1="60" y1="360" x2="60" y2="410"/>
</g>
<g style="stroke:#d3d3d3;stroke-width:0.5;">
<line x1="110" y1="360" x2="110" y2="410"/>
</g>
<g style="stroke:#000000;stroke-width:0.5;">
<line x1="60" y1="410" x2="110" y2="410"/>
</g>
<g style="stroke:#d3d3d3;stroke-width:0.5;">
<line x1="60" y1="360" x2="110" y2="360"/>
</g>
<g style="fill:#f5e663;">
<rect x="110" y="360" width="50" height="50"/>
</g>
<g style="stroke:#d3d3d3;stroke-width:0.5;">
<line x1="110" y1="360" x2="110" y2="410"/>
</g>
<g style="stroke:#000000;stroke-width:0.5;">
<line x1="160" y1="360" x2="160" y2="410"/>
</g>
<g style="stroke:#000000;stroke-width:0.5;">
<line x1="110" y1="410" x2="160" y2="410"/>
</g>
<g style="stroke:#000000;stroke-width:0.5;">
<line x1="110" y1="360" x2="160" y2="360"/>
</g>
<g style="fill:#ffad69;">
<rect x="60" y="260" width="50" height="50"/>
</g>
<g style="stroke:#d3d3d3;stroke-width:0.5;">
<line x1="60" y1="260" x2="60" y2="310"/>
</g>
<g style="stroke:#000000;stroke-width:0.5;">
<line x1="110" y1="260" x2="110" y2="310"/>
</g>
<g style="stroke:#000000;stroke-width:0.5;">
<line x1="60" y1="310" x2="110" y2="310"/>
</g>
<g style="stroke:#000000;stroke-width:0.5;">
<line x1="60" y1="260" x2="110" y2="260"/>
</g>
<g style="fill:#ffad69;">
<rect x="10" y="260" width="50" height="50"/>
</g>
<g style="stroke:#000000;stroke-width:0.5;">
<line x1="10" y1="260" x2="10" y2="310"/>
</g>
<g style="stroke:#d3d3d3;stroke-width:0.5;">
<line x1="60" y1="260" x2="60" y2="310"/>
</g>
<g style="stroke:#d3d3d3;stroke-width:0.5;">
<line x1="10" y1="310" x2="60" y2="310"/>
</g>
<g style="stroke:#d3d3d3;stroke-width:0.5;">
<line x1="10" y1="260" x2="60" y2="260"/>
</g>
<g style="fill:#ffad69;">
<rect x="10" y="210" width="50" height="50"/>
</g>
<g style="stroke:#000000;stroke-width:0.5;">
<line x1="10" y1="210" x2="10" y2="260"/>
</g>
<g style="stroke:#000000;stroke-width:0.5;">
<line x1="60" y1="210" x2="60" y2="260"/>
</g>
<g style="stroke:#d3d3d3;stroke-width:0.5;">
<line x1="10" y1="260" x2="60" y2="260"/>
</g>
<g style="stroke:#000000;stroke-width:0.5;">
<line x1="10" y1="210" x2="60" y2="210"/>
</g>
<g style="fill:#ffad69;">
<rect x="10" y="310" width="50" height="50"/>
</g>
<g style="stroke:#000000;stroke-width:0.5;">
<line x1="10" y1="310" x2="10" y2="360"/>
</g>
<g style="stroke:#000000;stroke-width:0.5;">
<line x1="60" y1="310" x2="60" y2="360"/>
</g>
<g style="stroke:#000000;stroke-width:0.5;">
<line x1="10" y1="360" x2="60" y2="360"/>
</g>
<g style="stroke:#d3d3d3;stroke-width:0.5;">
<line x1="10" y1="310" x2="60" y2="310"/>
</g>
<g style="fill:#9c3848;">
<rect x="10" y="160" width="50" height="50"/>
</g>
<g style="stroke:#000000;stroke-width:0.5;">
<line x1="10" y1="160" x2="10" y2="210"/>
</g>
<g style="stroke:#000000;stroke-width:0.5;">
<line x1="60" y1="160" x2="60" y2="210"/>
</g>
<g style="stroke:#000000;stroke-width:0.5;">
<line x1="10" y1="210" x2="60" y2="210"/>
</g>
<g style="stroke:#d3d3d3;stroke-width:0.5;">
<line x1="10" y1="160" x2="60" y2="160"/>
</g>
<g style="fill:#9c3848;">
<rect x="60" y="110" width="50" height="50"/>
</g>
<g style="stroke:#d3d3d3;stroke-width:0.5;">
<line x1="60" y1="110" x2="60" y2="160"/>
</g>
<g style="stroke:#000000;stroke-width:0.5;">
<line x1="110" y1="110" x2="110" y2="160"/>
</g>
<g style="stroke:#000000;stroke-width:0.5;">
<line x1="60" y1="160" x2="110" y2="160"/>
</g>
<g style="stroke:#000000;stroke-width:0.5;">
<line x1="60" y1="110" x2="110" y2="110"/>
</g>
<g style="fill:#9c3848;">
<rect x="10" y="110" width="50" height="50"/>
</g>
<g style="stroke:#000000;stroke-width:0.5;">
<line x1="10" y1="110" x2="10" y2="160"/>
</g>
<g style="stroke:#d3d3d3;stroke-width:0.5;">
<line x1="60" y1="110" x2="60" y2="160"/>
</g>
<g style="stroke:#d3d3d3;stroke-width:0.5;">
<line x1="10" y1="160" x2="60" y2="160"/>
</g>
<g style="stroke:#d3d3d3;stroke-width:0.5;">
<line x1="10" y1="110" x2="60" y2="110"/>
</g>
<g style="fill:#9c3848;">
<rect x="10" y="60" width="50" height="50"/>
</g>
<g style="stroke:#000000;stroke-width:0.5;">
<line x1="10" y1="60" x2="10" y2="110"/>
</g>
<g style="stroke:#000000;stroke-width:0.5;">
<line x1="60" y1="60" x2="60" y2="110"/>
</g>
<g style="stroke:#d3d3d3;stroke-width:0.5;">
<line x1="10" y1="110" x2="60" y2="110"/>
</g>
<g style="stroke:#000000;stroke-width:0.5;">
<line x1="10" y1="60" x2="60" y2="60"/>
</g>
<g style="fill:#7cb287;">
<rect x="60" y="10" width="50" height="50"/>
</g>
<g style="stroke:#d3d3d3;stroke-width:0.5;">
<line x1="60" y1="10" x2="60" y2="60"/>
</g>
<g style="stroke:#d3d3d3;stroke-width:0.5;">
<line x1="110" y1="10" x2="110" y2="60"/>
</g>
<g style="stroke:#d3d3d3;stroke-width:0.5;">
<line x1="60" y1="60" x2="110" y2="60"/>
</g>
<g style="stroke:#000000;stroke-width:0.5;">
<line x1="60" y1="10" x2="110" y2="10"/>
</g>
<g style="fill:#7cb287;">
<rect x="60" y="60" width="50" height="50"/>
</g>
<g style="stroke:#000000;stroke-width:0.5;">
<line x1="60" y1="60" x2="60" y2="110"/>
</g>
<g style="stroke:#000000;stroke-width:0.5;">
<line x1="110" y1="60" x2="110" y2="110"/>
</g>
<g style="stroke:#000000;stroke-width:0.5;">
<line x1="60" y1="110" x2="110" y2="110"/>
</g>
<g style="stroke:#d3d3d3;stroke-width:0.5;">
<line x1="60" y1="60" x2="110" y2="60"/>
</g>
<g style="fill:#7cb287;">
<rect x="10" y="10" width="50" height="50"/>
</g>
<g style="stroke:#000000;stroke-width:0.5;">
<line x1="10" y1="10" x2="10" y2="60"/>
</g>
<g style="stroke:#d3d3d3;stroke-width:0.5;">
<line x1="60" y1="10" x2="60" y2="60"/>
</g>
<g style="stroke:#000000;stroke-width:0.5;">
<line x1="10" y1="60" x2="60" y2="60"/>
</g>
<g style="stroke:#000000;stroke-width:0.5;">
<line x1="10" y1="10" x2="60" y2="10"/>
</g>
<g style="fill:#7cb287;">
<rect x="110" y="10" width="50" height="50"/>
</g>
<g style="stroke:#d3d3d3;stroke-width:0.5;">
<line x1="110" y1="10" x2="110" y2="60"/>
</g>
<g style="stroke:#000000;stroke-width:0.5;">
<line x1="160" y1="10" x2="160" y2="60"/>
</g>
<g style="stroke:#000000;stroke-width:0.5;">
<line x1="110" y1="60" x2="160" y2="60"/>
</g>
<g style="stroke:#000000;stroke-width:0.5;">
<line x1="110" y1="10" x2="160" y2="10"/>
</g>
</svg>

